<svg fill="none" height="48" viewBox="0 0 48 48" width="48" xmlns="http://www.w3.org/2000/svg"><g fill="#155eef"><path d="m45.7999 21.2369c-2.0788 2.0788-5.4491 2.0788-7.5279 0-2.0788-2.0787-2.0788-5.4491 0-7.5279s5.4491-2.0788 7.5279 0 2.0788 5.4492 0 7.5279z" opacity=".4"/><path d="m45.7954 21.2361c-2.0788 2.0787-5.4492 2.0787-7.528 0l-7.4343-7.4343c-2.0788-2.0788-5.4491-2.0788-7.5279 0s-2.0788 5.4491 0 7.5279l7.4343 7.4343c2.0788 2.0788 5.4491 2.0788 7.5279 0z" opacity=".6"/><path d="m38.2671 28.7652c-2.0788 2.0788-5.4492 2.0788-7.528 0l-14.4285-14.4286c-2.7718-2.7717-7.26559-2.7717-10.03731 0l-6.27329 6.2733c2.07879-2.0788 5.44916-2.0788 7.52795 0l15.68325 15.6832c2.0788 2.0788 5.4491 2.0788 7.5279 0z"/></g></svg>